<svg width="20" height="20" viewBox="0 0 20 20" fill="none" xmlns="http://www.w3.org/2000/svg">
<path fill-rule="evenodd" clip-rule="evenodd" d="M12.081 5.33137C12.0246 2.22901 9.51698 0 6.44017 0C3.36016 0 1 2.41012 1 5.48229C1 8.88583 3.27427 10.1214 6.00878 11.1477C8.45548 12.0519 9.63556 12.8649 9.63556 14.7927C9.63556 16.359 8.45548 17.6543 6.67093 17.6543C4.97228 17.6543 3.47554 16.4194 3.47554 14.4915C3.47554 13.8694 3.63605 13.5156 3.77317 13.2134C3.8754 12.9881 3.96463 12.7914 3.96463 12.5335C3.96463 11.8379 3.50439 11.3261 2.7557 11.3261C1.89227 11.3261 1 12.6818 1 14.6096C1 17.712 3.564 20.0013 6.67093 20C9.83684 20 12.1111 17.5597 12.1111 14.5177C12.1111 11.0236 9.7221 9.8484 7.10233 8.85431C4.65371 7.92192 3.47554 7.11028 3.47426 5.27167C3.47426 3.58465 4.74345 2.34975 6.41005 2.34975C8.19524 2.34975 9.60544 3.64771 9.63428 5.39174C9.66313 6.20539 10.2099 6.68701 10.8432 6.68701C11.5041 6.68701 12.1098 6.20338 12.081 5.33137Z" fill="url(#paint0_linear_131740_310)"/>
<path d="M18.3824 10.1049L17.2716 10.4475C16.8775 10.569 16.569 10.8775 16.4475 11.2716L16.1049 12.3824C15.9024 13.0392 14.9726 13.0392 14.7701 12.3824L14.4275 11.2716C14.306 10.8775 13.9975 10.569 13.6034 10.4475L12.4926 10.1049C11.8358 9.90237 11.8358 8.97263 12.4926 8.77012L13.6032 8.42754C13.9975 8.30599 14.306 7.99727 14.4275 7.60316L14.7701 6.49257C14.9726 5.83581 15.9024 5.83581 16.1049 6.49257L16.4475 7.60337C16.569 7.99748 16.8775 8.30599 17.2716 8.42754L18.3822 8.77012C19.039 8.97263 19.0392 9.90237 18.3824 10.1049Z" fill="url(#paint1_linear_131740_310)"/>
<mask id="mask0_131740_310" style="mask-type:alpha" maskUnits="userSpaceOnUse" x="12" y="6" width="7" height="7">
<path d="M18.3824 10.1049L17.2716 10.4475C16.8775 10.569 16.569 10.8775 16.4475 11.2716L16.1049 12.3824C15.9024 13.0392 14.9726 13.0392 14.7701 12.3824L14.4275 11.2716C14.306 10.8775 13.9975 10.569 13.6034 10.4475L12.4926 10.1049C11.8358 9.90237 11.8358 8.97263 12.4926 8.77012L13.6032 8.42754C13.9975 8.30599 14.306 7.99727 14.4275 7.60316L14.7701 6.49257C14.9726 5.83581 15.9024 5.83581 16.1049 6.49257L16.4475 7.60337C16.569 7.99748 16.8775 8.30599 17.2716 8.42754L18.3822 8.77012C19.039 8.97263 19.0392 9.90237 18.3824 10.1049Z" fill="white"/>
</mask>
<g mask="url(#mask0_131740_310)">
<path d="M14 13C15.1046 13 16 12.1046 16 11C16 9.89543 15.1046 9 14 9C12.8954 9 12 9.89543 12 11C12 12.1046 12.8954 13 14 13Z" fill="url(#paint2_radial_131740_310)"/>
</g>
<defs>
<linearGradient id="paint0_linear_131740_310" x1="9.5" y1="2.5" x2="4.29844" y2="13.3339" gradientUnits="userSpaceOnUse">
<stop offset="0.051012" stop-color="#9D5FFF"/>
<stop offset="0.468062" stop-color="#11AFFF"/>
<stop offset="0.811111" stop-color="#06E0E6"/>
<stop offset="1" stop-color="#00D639"/>
</linearGradient>
<linearGradient id="paint1_linear_131740_310" x1="14" y1="7.5" x2="17" y2="11" gradientUnits="userSpaceOnUse">
<stop offset="0.051012" stop-color="#9D5FFF"/>
<stop offset="0.495" stop-color="#11AFFF"/>
<stop offset="1" stop-color="#00D639"/>
</linearGradient>
<radialGradient id="paint2_radial_131740_310" cx="0" cy="0" r="1" gradientUnits="userSpaceOnUse" gradientTransform="translate(14 11) rotate(90) scale(2)">
<stop offset="0.02" stop-color="#06E0E6"/>
<stop offset="1" stop-color="#06E0E6" stop-opacity="0"/>
</radialGradient>
</defs>
</svg>
