<svg width="20" height="20" viewBox="0 0 20 20" fill="none" xmlns="http://www.w3.org/2000/svg">
<path d="M10.0084 2C6.56213 2 3.99948 4.80375 3.99948 8.25L3.99948 11.9942L2.60767 14.5342C2.466 14.8571 2.49776 15.2192 2.69068 15.5142C2.88359 15.8096 3.20934 15.9942 3.56226 15.9942L16.4545 15.9942C16.8074 15.9942 17.1332 15.8096 17.3261 15.5142C17.5194 15.2192 17.5508 14.8571 17.4091 14.5342L15.9995 11.9942L15.9995 8.25C15.9995 4.80375 13.4546 2 10.0084 2ZM6.99948 16.9942C7.43804 18.1577 8.61533 18.9942 9.99948 18.9942C11.3836 18.9942 12.5609 18.1577 12.9995 16.9942L6.99948 16.9942Z" fill="white"/>
</svg>
