<svg width="20" height="20" viewBox="0 0 20 20" fill="none" xmlns="http://www.w3.org/2000/svg">
<path d="M17.7 20L13.3 20C12.6 20 12 19.3985 12 18.6967L12 13.985C12 13.3835 11.5 12.9825 11 12.9825L9 12.9825C8.4 12.9825 8 13.4837 8 13.985L8 18.6967C8 19.3985 7.4 20 6.7 20L2.3 20C1.6 20 1 19.3985 1 18.6967L1 8.87218C1 7.66917 1.5 6.56642 2.4 5.86466L9.5 0.150376C9.8 -0.0501253 10.2 -0.0501253 10.5 0.150376L17.6 5.86466C18.5 6.56642 19 7.66917 19 8.87218L19 18.6967C19 19.3985 18.4 20 17.7 20Z" fill="white"/>
</svg>
