<svg width="40" height="23" viewBox="0 0 40 23" fill="none" xmlns="http://www.w3.org/2000/svg">
<path fill-rule="evenodd" clip-rule="evenodd" d="M9.00365 4.13958C8.95781 1.73073 6.92031 0 4.42031 0C1.91771 0 0 1.87135 0 4.25677C0 6.89948 1.84792 7.85885 4.06979 8.65573C6.05781 9.35781 7.01667 9.98906 7.01667 11.4859C7.01667 12.7021 6.05781 13.7078 4.60781 13.7078C3.2276 13.7078 2.01146 12.749 2.01146 11.2521C2.01146 10.769 2.14188 10.4943 2.25329 10.2597C2.33635 10.0847 2.40885 9.93199 2.40885 9.73177C2.40885 9.19167 2.0349 8.79427 1.42656 8.79427C0.725001 8.79427 0 9.84687 0 11.3437C0 13.7526 2.08333 15.5302 4.60781 15.5292C7.18021 15.5292 9.02813 13.6344 9.02813 11.2724C9.02813 8.55937 7.08698 7.64687 4.95833 6.875C2.96875 6.15104 2.01146 5.52083 2.01042 4.09323C2.01042 2.78333 3.04167 1.82448 4.39583 1.82448C5.84636 1.82448 6.99219 2.83229 7.01563 4.18646C7.03906 4.81823 7.48333 5.19219 7.99792 5.19219C8.5349 5.19219 9.02708 4.81667 9.00365 4.13958ZM9.99634 10.9224C9.99634 13.4953 12.1015 15.5302 14.6276 15.5302C15.75 15.5302 16.6156 15.1557 16.6156 14.4307C16.6156 13.8927 16.1479 13.5187 15.7036 13.5187C15.56 13.5187 15.4345 13.5457 15.2934 13.5759C15.1126 13.6146 14.9064 13.6588 14.6042 13.6588C13.1536 13.6588 12.0078 12.3958 12.0078 10.9224C12.0078 9.33228 13.1776 8.0927 14.651 8.0927C16.3114 8.0927 17.364 9.35572 17.364 11.2031V14.5479C17.364 15.1323 17.8318 15.5302 18.3932 15.5302C18.9302 15.5302 19.3989 15.1323 19.3989 14.5479V11.1328C19.3989 8.32655 17.4583 6.26822 14.6979 6.26822C12.125 6.26822 9.99634 8.25624 9.99634 10.9224ZM25.162 22.5C22.5422 22.5 20.3672 20.6286 20.3672 18.1963C20.3672 17.3776 20.8359 17.0036 21.3729 17.0036C21.9099 17.0036 22.3552 17.3547 22.3786 18.0328C22.4021 19.5531 23.6182 20.6755 25.1391 20.6755C26.7536 20.6755 27.8052 19.6463 27.8052 18.3135C27.8052 16.7932 26.6359 16.1614 24.6479 15.5302C22.3323 14.7818 20.3677 13.7526 20.3677 10.8989C20.3677 8.27968 22.3792 6.26822 24.999 6.26822C27.6417 6.26822 29.8167 8.18593 29.8167 10.712C29.8167 12.2557 29.1854 13.4484 28.3198 13.4484C27.7354 13.4484 27.3375 13.0276 27.3375 12.5109C27.3375 12.2805 27.4235 12.1059 27.5218 11.9062C27.653 11.6396 27.8063 11.3284 27.8063 10.7802C27.8063 9.16561 26.5437 8.09061 25.0234 8.09061C23.5495 8.09061 22.3802 9.21301 22.3802 10.6864C22.3802 12.3474 23.5729 13.0489 25.538 13.7036C27.8062 14.4521 29.8177 15.3875 29.8177 18.1239C29.8177 20.5802 27.8766 22.4989 25.1635 22.4989L25.162 22.5ZM30.7849 10.899C30.7849 13.4719 32.9365 15.5302 35.5563 15.5302H35.5578C36.8677 15.5302 37.9203 15.1792 38.6219 14.7349C39.3235 14.2906 39.6042 13.9162 39.6042 13.4953C39.6042 13.0511 39.275 12.6531 38.6667 12.6531C38.3841 12.6531 38.1229 12.813 37.8041 13.0082C37.3049 13.3137 36.6645 13.7057 35.5797 13.7057C35.2121 13.7062 34.848 13.6337 34.5086 13.4925C34.1692 13.3513 33.8612 13.1442 33.6023 12.8832C33.3435 12.6222 33.139 12.3124 33.0006 11.9718C32.8623 11.6312 32.7929 11.2666 32.7964 10.899C32.7964 9.35574 34.0125 8.06928 35.5094 8.06928C37.1235 8.06928 37.9886 9.12293 37.9886 9.80001C37.9886 9.98699 37.8485 10.0807 37.661 10.0807H35.6495C35.1099 10.0807 34.712 10.4537 34.712 10.9224C34.712 11.4136 35.112 11.788 35.6495 11.788H38.3396C39.3688 11.788 40 11.25 40 10.3615C40 8.06928 38.0354 6.26824 35.4391 6.26824C34.829 6.26529 34.2244 6.38289 33.6599 6.61427C33.0955 6.84565 32.5823 7.18626 32.1498 7.61655C31.7173 8.04683 31.3741 8.5583 31.1399 9.1216C30.9057 9.6849 30.785 10.2889 30.7849 10.899Z" fill="#00D639"/>
</svg>
