<svg width="20" height="20" viewBox="0 0 20 20" fill="none" xmlns="http://www.w3.org/2000/svg">
<path d="M3.9 0L2.1 0C0.9 0 0 0.9 0 2.1L0 4C0 5.1 0.9 6 2.1 6L4 6C5.1 6 6 5.1 6 3.9L6 2.1C6 0.9 5.1 0 3.9 0ZM10.8361 14L9.06557 14C7.88525 14 7 14.9 7 16.1L7 18C7 19.1 7.88525 20 9.06557 20L10.9344 20C12.0164 20 13 19.1 13 17.9L13 16C12.9016 14.9 12.0164 14 10.8361 14ZM3.9 7L2.1 7C0.9 7 0 7.9 0 9.1L0 11C0 12.1 0.9 13 2.1 13L4 13C5.1 13 6 12.1 6 10.9L6 9.1C6 7.9 5.1 7 3.9 7ZM10.8361 7L9.06557 7C7.88525 7 7 7.9 7 9.1L7 11C7 12.1 7.88525 13 9.06557 13L10.9344 13C12.0164 13 13 12.1 13 10.9L13 9.1C12.9016 7.9 12.0164 7 10.8361 7ZM3.9 14L2.1 14C0.9 14 0 14.9 0 16.1L0 18C0 19.1 0.9 20 2.1 20L4 20C5.1 20 6 19.1 6 17.9L6 16C6 14.9 5.1 14 3.9 14ZM17.8361 7L15.9672 7C14.8852 7 14 7.88525 14 9.06557L14 10.9344C14 12.0164 14.8852 13 16.0656 13L17.9344 13C19.0164 13 20 12.1148 20 10.9344L20 9.06557C19.9016 7.88525 19.0164 7 17.8361 7ZM10.9 0L9.1 0C7.9 0 7 0.9 7 2.1L7 4C7 5.1 7.9 6 9.1 6L11 6C12.1 6 13 5.1 13 3.9L13 2.1C13 0.9 12.1 0 10.9 0ZM17.9 0L16 0C14.9 0 14 0.9 14 2.1L14 4C14 5.1 14.9 6 16.1 6L18 6C19.1 6 20 5.1 20 3.9L20 2.1C20 0.9 19.1 0 17.9 0ZM17.8344 14L15.9656 14C14.8836 14 13.9 14.8852 13.9 16.0656L13.9 17.9344C13.9 19.0164 14.7852 20 15.9656 20L17.8344 20C18.9164 20 19.9 19.1148 19.9 17.9344L19.9 16.0656C19.9 14.8852 19.0148 14 17.8344 14Z" fill="white"/>
</svg>
